HIERARCHY
ROOT RootJoint
{
    OFFSET   0.000000   0.000000   0.000000
    CHANNELS 6 Xposition Yposition Zposition Xrotation Yrotation Zrotation
    JOINT pelvis_lowerback
    {
        OFFSET   0.000000   0.093605   0.000000
        CHANNELS 3 Xrotation Yrotation Zrotation
        JOINT lowerback_torso
        {
            OFFSET   0.000000   0.100000   0.000000
            CHANNELS 3 Xrotation Yrotation Zrotation
            JOINT torso_head
            {
                OFFSET   0.000000   0.282350   0.000000
                CHANNELS 3 Xrotation Yrotation Zrotation
                End Site
                {
                    OFFSET   0.000000   0.192650   0.000000
                }
            }
            JOINT rTorso_Clavicle
            {
                OFFSET  -0.001000   0.157500   0.000000
                CHANNELS 3 Xrotation Yrotation Zrotation
                JOINT rShoulder
                {
                    OFFSET  -0.117647   0.000000   0.000000
                    CHANNELS 3 Xrotation Yrotation Zrotation
                    JOINT rElbow
                    {
                        OFFSET  -0.245000   0.000000   0.000000
                        CHANNELS 3 Xrotation Yrotation Zrotation
                        JOINT rWrist
                        {
                            OFFSET  -0.240000   0.000000   0.000000
                            CHANNELS 3 Xrotation Yrotation Zrotation
                            End Site
                            {
                                OFFSET  -0.116353  -0.002500   0.000000
                            }
                        }
                    }
                }
            }
            JOINT lTorso_Clavicle
            {
                OFFSET   0.001000   0.157500   0.000000
                CHANNELS 3 Xrotation Yrotation Zrotation
                JOINT lShoulder
                {
                    OFFSET   0.117647   0.000000   0.000000
                    CHANNELS 3 Xrotation Yrotation Zrotation
                    JOINT lElbow
                    {
                        OFFSET   0.245000   0.000000   0.000000
                        CHANNELS 3 Xrotation Yrotation Zrotation
                        JOINT lWrist
                        {
                            OFFSET   0.240000   0.000000   0.000000
                            CHANNELS 3 Xrotation Yrotation Zrotation
                            End Site
                            {
                                OFFSET   0.116353  -0.002500   0.000000
                            }
                        }
                    }
                }
            }
        }
    }
    JOINT rHip
    {
        OFFSET  -0.100000  -0.051395   0.000000
        CHANNELS 3 Xrotation Yrotation Zrotation
        JOINT rKnee
        {
            OFFSET   0.000000  -0.410000   0.000000
            CHANNELS 3 Xrotation Yrotation Zrotation
            JOINT rAnkle
            {
                OFFSET   0.000000  -0.390000   0.000000
                CHANNELS 3 Xrotation Yrotation Zrotation
                JOINT rToeJoint
                {
                    OFFSET   0.000000  -0.050000   0.130000
                    CHANNELS 3 Xrotation Yrotation Zrotation
                    End Site
                    {
                        OFFSET  -0.010000   0.002000   0.060000
                    }
                }
            }
        }
    }
    JOINT lHip
    {
        OFFSET   0.100000  -0.051395   0.000000
        CHANNELS 3 Xrotation Yrotation Zrotation
        JOINT lKnee
        {
            OFFSET   0.000000  -0.410000   0.000000
            CHANNELS 3 Xrotation Yrotation Zrotation
            JOINT lAnkle
            {
                OFFSET   0.000000  -0.390000   0.000000
                CHANNELS 3 Xrotation Yrotation Zrotation
                JOINT lToeJoint
                {
                    OFFSET   0.000000  -0.050000   0.130000
                    CHANNELS 3 Xrotation Yrotation Zrotation
                    End Site
                    {
                        OFFSET   0.010000   0.002000   0.060000
                    }
                }
            }
        }
    }
}
MOTION
Frames: 17
Frame Time:   0.008333
 -2.376719   0.925631   3.975860   0.000000   0.000000   0.000000   0.000000   0.000000   0.000000   0.000000   0.000000   0.000000   0.000000   0.000000   0.000000   0.000000   0.000000   0.000000   0.000000   0.000000   0.000000   0.000000   0.000000   0.000000   0.000000   0.000000   0.000000   0.000000   0.000000   0.000000   0.000000   0.000000   0.000000   0.000000   0.000000   0.000000   0.000000   0.000000   0.000000   0.000000   0.000000   0.000000   0.000000   0.000000   0.000000   0.000000   0.000000   0.000000   0.000000   0.000000   0.000000   0.000000   0.000000   0.000000   0.000000   0.000000   0.000000   0.000000   0.000000   0.000000   0.000000   0.000000   0.000000
 -2.376681   0.926074   3.975713   0.191518   0.222399  -0.004262  -0.323865   0.009256  -0.006063   0.165596  -0.216546   0.014445  -0.125615   0.121217  -0.066962   0.418466  -0.404541   0.168680   1.112408   0.299387   2.107395   0.018168   0.905235  -0.012480   0.402574  -0.432770  -2.424732   0.431456   0.215151  -0.358735   1.681774  -0.213021  -1.873741   0.017648  -0.898149   0.016952   0.529779   0.418766   2.252052  -0.421196  -0.083139  -0.088656   0.666670   0.000537   0.000806  -0.712072  -0.450445  -0.139359  -0.095595  -0.000191   0.000259  -0.509289  -0.199456   0.098862   0.862090  -0.000725   0.000180  -0.976608   0.233401   0.116729   0.365895  -0.000676   0.000820
 -2.376665   0.926849   3.975628   0.338527   0.499842  -0.009971  -0.630512  -0.004640  -0.014995   0.338870  -0.464979   0.025764  -0.244565   0.239739  -0.133421   0.825665  -0.745671   1.006082   2.199149   0.679687   4.746575   0.041858   1.786622  -0.021704   0.848833  -0.602622  -4.149429   0.854174   0.326580  -1.373726   3.337047  -0.555811  -4.280603   0.041192  -1.779330   0.029862   1.118823   0.569245   3.813631  -0.806492  -0.161313  -0.257007   1.361996   0.001490   0.001825  -1.379518  -0.875011  -0.276824  -0.222535  -0.000490   0.000456  -0.953387  -0.386470   0.281287   1.751181  -0.001978   0.000897  -1.891521   0.453402   0.230315   0.656676  -0.001279   0.001455
 -2.376664   0.927581   3.975618   0.472372   0.790276  -0.016300  -0.927229  -0.036447  -0.027115   0.493420  -0.720579   0.034104  -0.359311   0.351147  -0.195791   1.210556  -1.015589   2.255800   3.248884   1.139688   7.728350   0.065136   2.620450  -0.027869   1.283356  -0.659808  -5.115465   1.247851   0.354482  -2.787770   4.950350  -1.022135  -7.031455   0.064674  -2.619202   0.038920   1.692431   0.575683   4.627124  -1.173420  -0.231342  -0.490747   2.020981   0.002586   0.002663  -2.003384  -1.270370  -0.410391  -0.345002  -0.000780   0.000551  -1.340455  -0.559803   0.531026   2.596777  -0.003401   0.001692  -2.745841   0.658726   0.340243   0.916822  -0.001826   0.001915
 -2.376675   0.928001   3.975693   0.602700   1.072989  -0.022901  -1.214359  -0.079325  -0.041962   0.625691  -0.974248   0.039499  -0.470107   0.455445  -0.253940   1.573756  -1.228816   3.740978   4.259676   1.677734  10.936941   0.085355   3.406626  -0.031724   1.703699  -0.648297  -5.526299   1.611058   0.324592  -4.426136   6.519255  -1.607772 -10.007494   0.085312  -3.416006   0.045053   2.247690   0.483266   4.895296  -1.529509  -0.294059  -0.776837   2.634286   0.003656   0.003207  -2.587229  -1.638552  -0.539612  -0.463289  -0.001046   0.000593  -1.679029  -0.721859   0.834248   3.392343  -0.004793   0.002363  -3.544118   0.850024   0.446385   1.149265  -0.002279   0.002191
 -2.376692   0.927911   3.975861   0.732199   1.337206  -0.029522  -1.492028  -0.129020  -0.059115   0.736953  -1.221660   0.041988  -0.575681   0.552976  -0.308055   1.915313  -1.399748   5.344034   5.228764   2.288224  14.293717   0.101444   4.145860  -0.033846   2.109217  -0.591154  -5.565703   1.943281   0.256683  -6.172813   8.040068  -2.305709 -13.127485   0.101922  -4.169364   0.048984   2.783475   0.320418   4.801571  -1.876258  -0.349984  -1.103716   3.202661   0.004600   0.003464  -3.133716  -1.981462  -0.664174  -0.576678  -0.001274   0.000607  -1.974082  -0.874231   1.178977   4.140212  -0.006046   0.002847  -4.289984   1.028049   0.548597   1.357661  -0.002625   0.002310
 -2.376716   0.927164   3.976126   0.861426   1.577164  -0.035938  -1.760837  -0.183067  -0.078269   0.829034  -1.460820   0.041644  -0.675124   0.644138  -0.358389   2.235621  -1.540429   6.987439   6.153348   2.964193  17.745864   0.113214   4.839129  -0.034668   2.498861  -0.506024  -5.367893   2.244979   0.165476  -7.951452   9.508740  -3.107802 -16.336480   0.114244  -4.879536   0.051260   3.298232   0.109485   4.479878  -2.213361  -0.399458  -1.461215   3.729009   0.005369   0.003486  -3.645183  -2.300836  -0.783863  -0.684385  -0.001456   0.000607  -2.229398  -1.017914   1.554848   4.843760  -0.007105   0.003137  -4.986755   1.193590   0.646766   1.545337  -0.002867   0.002308
 -2.376662   0.925172   3.975891   1.071891   1.713100  -0.021098  -1.950377  -0.204360  -0.055150   0.837221  -1.645383  -0.027909  -0.931381   0.619326  -0.480276   2.526569  -1.490272   7.910370   7.166813   3.695057  21.484779   0.131400   5.791912  -0.040190   2.791641  -0.569307  -4.394697   2.527753   0.046559  -8.993365  10.967269  -4.190949 -19.757400   0.128569  -5.760596   0.057406   3.694464  -0.069046   3.356782  -2.718364  -0.697983  -1.816410   4.184450   0.005566   0.001977  -3.884940  -2.723265  -0.776466  -0.610775  -0.000957   0.000107  -2.515958  -0.982353   1.853370   5.171353  -0.006554   0.003121  -5.441865   1.336317   0.787870   1.712301  -0.002949   0.002337
 -2.376589   0.922094   3.975411   1.287853   1.811002  -0.002347  -2.083266  -0.221977  -0.028188   0.842979  -1.810512  -0.099446  -1.181771   0.592212  -0.603099   2.769617  -1.355969   8.669899   8.048018   4.495631  24.909672   0.140956   6.711059  -0.043855   3.094682  -0.473838  -3.383743   2.763348  -0.140276  -9.854779  12.252140  -5.332844 -22.861941   0.135343  -6.612257   0.061386   4.088341  -0.412017   2.231315  -3.252033  -0.991580  -2.142469   4.575249   0.005401   0.000761  -4.106698  -3.121895  -0.772167  -0.519522  -0.000539  -0.000397  -2.818305  -0.944478   2.102826   5.415311  -0.005799   0.002869  -5.868988   1.468750   0.920844   1.869014  -0.002898   0.002268
 -2.376496   0.921872   3.975155   1.419867   1.906664   0.041729  -2.165908  -0.245773  -0.019706   0.880842  -1.968738  -0.174105  -1.407368   0.566691  -0.721458   2.974181  -1.176031   9.551802   8.806776   5.328888  28.136506   0.146113   7.578435  -0.045465   3.392578  -0.331264  -2.536536   2.956498  -0.370413 -10.821472  13.374740  -6.504088 -25.768899   0.138387  -7.416843   0.062978   4.467866  -0.781076   1.297456  -3.749161  -1.331862  -2.258447   5.203020   0.004504  -0.000901  -3.977262  -3.545117  -0.656069  -0.378453  -0.000475  -0.001156  -3.192609  -0.834690   2.060680   5.806361  -0.004600   0.003056  -5.966920   1.651411   0.928551   2.086609  -0.002334   0.002574
 -2.376419   0.921763   3.975100   1.563284   1.958223   0.074364  -2.267335  -0.256671  -0.000777   0.900824  -2.107865  -0.239617  -1.614577   0.543648  -0.831606   3.154743  -0.992881  10.290731   9.464842   6.161856  31.138285   0.146045   8.402379  -0.045401   3.680840  -0.105577  -1.642175   3.127401  -0.594065 -11.641064  14.363165  -7.662918 -28.462222   0.136988  -8.182721   0.062758   4.827957  -1.233454   0.333521  -4.161981  -1.592920  -2.345461   5.699156   0.003673  -0.001735  -4.069160  -3.889702  -0.645787  -0.259515  -0.000344  -0.001513  -3.505646  -0.790763   2.015084   6.127484  -0.003627   0.002745  -6.235928   1.765730   1.034889   2.251819  -0.001993   0.002383
 -2.376356   0.921672   3.975143   1.723967   1.970729   0.103710  -2.372917  -0.259635   0.019610   0.901843  -2.230458  -0.297878  -1.811118   0.522679  -0.933818   3.312592  -0.812451  10.928964  10.035343   6.974021  33.904023   0.142000   9.175994  -0.044095   3.955556   0.145705  -0.824978   3.278447  -0.805938 -12.353292  15.235896  -8.784527 -30.931615   0.132153  -8.900399   0.061145   5.166442  -1.697041  -0.544695  -4.550754  -1.829520  -2.426359   6.120302   0.002977  -0.002292  -4.180034  -4.208021  -0.642250  -0.169430  -0.000248  -0.001646  -3.798951  -0.757378   1.971586   6.401357  -0.002862   0.002324  -6.506834   1.867725   1.140515   2.388070  -0.001694   0.002097
 -2.376309   0.921584   3.975267   1.890984   1.952403   0.131330  -2.473446  -0.258549   0.040722   0.894853  -2.340380  -0.350230  -1.996164   0.503446  -1.028988   3.452411  -0.640467  11.481807  10.530706   7.755949  36.453851   0.135271   9.899673  -0.041949   4.215910   0.397397  -0.100354   3.413692  -1.002964 -12.973701  16.008368  -9.859831 -33.197839   0.125056  -9.570231   0.058585   5.484212  -2.143922  -1.324790  -4.920605  -2.049525  -2.503219   6.494995   0.002402  -0.002678  -4.292316  -4.505073  -0.640062  -0.089855  -0.000177  -0.001697  -4.074467  -0.727388   1.930366   6.646470  -0.002261   0.001896  -6.766950   1.961851   1.240481   2.510971  -0.001440   0.001803
 -2.376355   0.921591   3.975233   2.046665   1.906887   0.137887  -2.468225  -0.245319   0.045968   0.889732  -2.379911  -0.344915  -2.202148   0.460497  -1.101989   3.542713  -0.548644  11.584480  10.971819   8.487060  38.549254   0.129179  10.836228  -0.041696   4.404311   0.730190   1.334354   3.555869  -1.155064 -13.096507  16.545173 -10.967681 -35.166806   0.120315 -10.483414   0.058625   5.729403  -2.642289  -2.672435  -5.207319  -2.219030  -2.538862   6.727441   0.001906  -0.002604  -4.500724  -4.717273  -0.669242   0.086132  -0.000091  -0.002027  -4.247435  -0.651088   1.915637   6.679443  -0.001805   0.001527  -6.858999   2.008638   1.400776   2.690544  -0.001378   0.001582
 -2.376481   0.921658   3.975044   2.240769   1.860945   0.142003  -2.440461  -0.232067   0.048168   0.880043  -2.414089  -0.338893  -2.387528   0.421359  -1.164974   3.596323  -0.445297  11.406364  11.358616   9.171986  40.310615   0.118436  11.718753  -0.040649   4.579193   1.126527   2.507703   3.653909  -1.322355 -12.956179  17.014092 -12.003747 -36.824571   0.111342 -11.346192   0.057458   5.952080  -3.215420  -3.767987  -5.498687  -2.374514  -2.564435   6.876357   0.001507  -0.002357  -4.728306  -4.913920  -0.700696   0.240522  -0.000047  -0.002169  -4.432451  -0.582208   1.907164   6.642530  -0.001446   0.001213  -6.970621   2.050091   1.554966   2.866474  -0.001319   0.001383
 -2.376691   0.921762   3.974759   2.460419   1.814319   0.145051  -2.393390  -0.220255   0.048149   0.869629  -2.446862  -0.338059  -2.556447   0.385163  -1.222503   3.624651  -0.336604  11.044551  11.702744   9.807400  41.810221   0.105637  12.541244  -0.038944   4.744039   1.497535   3.367789   3.724466  -1.493447 -12.642158  17.433705 -12.960496 -38.235236   0.100380 -12.147249   0.055305   6.161652  -3.743721  -4.572301  -5.793754  -2.519164  -2.581500   6.970653   0.001189  -0.002049  -4.959027  -5.097699  -0.731714   0.378930  -0.000028  -0.002197  -4.625696  -0.519596   1.904575   6.560830  -0.001157   0.000959  -7.095223   2.088034   1.700654   3.025914  -0.001245   0.001200
 -2.376984   0.921886   3.974428   2.695191   1.767255   0.147158  -2.330374  -0.209901   0.045393   0.862988  -2.478187  -0.342408  -2.710955   0.351460  -1.276031   3.637768  -0.229884  10.564375  12.013485  10.393320  43.102805   0.092454  13.305408  -0.036789   4.901371   1.822248   3.979409   3.778638  -1.659279 -12.215234  17.814951 -13.840292 -39.450780   0.088963 -12.888204   0.052463   6.362648  -4.200446  -5.149461  -6.088098  -2.654183  -2.590130   7.027930   0.000939  -0.001732  -5.185978  -5.269567  -0.761540   0.504087  -0.000025  -0.002152  -4.821769  -0.462819   1.908219   6.449874  -0.000920   0.000757  -7.226273   2.122764   1.838073   3.170487  -0.001164   0.001034
